<mxfile host="app.diagrams.net" agent="Mozilla/5.0 (Windows NT 10.0; Win64; x64) AppleWebKit/537.36 (KHTML, like Gecko) Chrome/135.0.0.0 Safari/537.36" version="26.2.12">
  <diagram name="Page-1" id="Y5PaYecPGq5qy4q5mESf">
    <mxGraphModel dx="1428" dy="743" grid="1" gridSize="10" guides="1" tooltips="1" connect="1" arrows="1" fold="1" page="1" pageScale="1" pageWidth="827" pageHeight="1169" math="0" shadow="0">
      <root>
        <mxCell id="0" />
        <mxCell id="1" parent="0" />
        <mxCell id="ZCiaga0Yp50tMM73B_RX-8" value="" style="edgeStyle=orthogonalEdgeStyle;rounded=0;orthogonalLoop=1;jettySize=auto;html=1;" edge="1" parent="1" source="ZCiaga0Yp50tMM73B_RX-1" target="ZCiaga0Yp50tMM73B_RX-2">
          <mxGeometry relative="1" as="geometry" />
        </mxCell>
        <mxCell id="ZCiaga0Yp50tMM73B_RX-1" value="START" style="rounded=1;whiteSpace=wrap;html=1;" vertex="1" parent="1">
          <mxGeometry x="340" y="40" width="120" height="60" as="geometry" />
        </mxCell>
        <mxCell id="ZCiaga0Yp50tMM73B_RX-10" value="" style="edgeStyle=orthogonalEdgeStyle;rounded=0;orthogonalLoop=1;jettySize=auto;html=1;" edge="1" parent="1" source="ZCiaga0Yp50tMM73B_RX-2" target="ZCiaga0Yp50tMM73B_RX-9">
          <mxGeometry relative="1" as="geometry" />
        </mxCell>
        <mxCell id="ZCiaga0Yp50tMM73B_RX-2" value="Generate random word" style="rounded=1;whiteSpace=wrap;html=1;" vertex="1" parent="1">
          <mxGeometry x="340" y="130" width="120" height="50" as="geometry" />
        </mxCell>
        <mxCell id="ZCiaga0Yp50tMM73B_RX-12" value="" style="edgeStyle=orthogonalEdgeStyle;rounded=0;orthogonalLoop=1;jettySize=auto;html=1;" edge="1" parent="1" source="ZCiaga0Yp50tMM73B_RX-9" target="ZCiaga0Yp50tMM73B_RX-11">
          <mxGeometry relative="1" as="geometry" />
        </mxCell>
        <mxCell id="ZCiaga0Yp50tMM73B_RX-9" value="Generate blanks pattern&amp;nbsp;" style="whiteSpace=wrap;html=1;rounded=1;" vertex="1" parent="1">
          <mxGeometry x="340" y="210" width="120" height="50" as="geometry" />
        </mxCell>
        <mxCell id="ZCiaga0Yp50tMM73B_RX-14" value="" style="edgeStyle=orthogonalEdgeStyle;rounded=0;orthogonalLoop=1;jettySize=auto;html=1;" edge="1" parent="1" source="ZCiaga0Yp50tMM73B_RX-11" target="ZCiaga0Yp50tMM73B_RX-13">
          <mxGeometry relative="1" as="geometry" />
        </mxCell>
        <mxCell id="ZCiaga0Yp50tMM73B_RX-17" value="" style="edgeStyle=orthogonalEdgeStyle;rounded=0;orthogonalLoop=1;jettySize=auto;html=1;" edge="1" parent="1" source="ZCiaga0Yp50tMM73B_RX-11" target="ZCiaga0Yp50tMM73B_RX-16">
          <mxGeometry relative="1" as="geometry" />
        </mxCell>
        <mxCell id="ZCiaga0Yp50tMM73B_RX-11" value="Is the letter correct?" style="rhombus;whiteSpace=wrap;html=1;rounded=1;" vertex="1" parent="1">
          <mxGeometry x="355" y="300" width="90" height="85" as="geometry" />
        </mxCell>
        <mxCell id="ZCiaga0Yp50tMM73B_RX-13" value="" style="whiteSpace=wrap;html=1;rounded=1;" vertex="1" parent="1">
          <mxGeometry x="180" y="440" width="120" height="40" as="geometry" />
        </mxCell>
        <mxCell id="ZCiaga0Yp50tMM73B_RX-15" value="Yes" style="text;html=1;align=center;verticalAlign=middle;resizable=0;points=[];autosize=1;strokeColor=none;fillColor=none;" vertex="1" parent="1">
          <mxGeometry x="180" y="370" width="40" height="30" as="geometry" />
        </mxCell>
        <mxCell id="ZCiaga0Yp50tMM73B_RX-16" value="" style="whiteSpace=wrap;html=1;rounded=1;" vertex="1" parent="1">
          <mxGeometry x="470" y="440" width="120" height="40" as="geometry" />
        </mxCell>
        <mxCell id="ZCiaga0Yp50tMM73B_RX-18" value="No" style="text;html=1;align=center;verticalAlign=middle;resizable=0;points=[];autosize=1;strokeColor=none;fillColor=none;" vertex="1" parent="1">
          <mxGeometry x="540" y="368" width="40" height="30" as="geometry" />
        </mxCell>
      </root>
    </mxGraphModel>
  </diagram>
</mxfile>
